PathFileType	4	(X/Y/Z)	 s11c0302.trc
DataRate	CameraRate	NumFrames	NumMarkers	Units	OrigDataRate	OrigDataStartFrame	OrigNumFrames
200	200	5	48	mm	200	1251	2000
Frame#	Time	racr			lacr			c7			jug			rlel			rdr			llel			ldr			s2			lic			ric			lasi			rasi			rpsi			lpsi			rgt			lgt			rth1			rth2			rth3			rth4			rlfc			rmfc			rsh1			rsh2			rsh3			rsh4			rlmal			rcal			rtoe			rmt5			lth1			lth2			lth4			lth3			llfc			lmfc			llmal			lcal			lmt5			lsh1			lsh2			lsh3			lsh4			ltoe			SBIKE			LBIKE			RBIKE			
		X1	Y1	Z1	X2	Y2	Z2	X3	Y3	Z3	X4	Y4	Z4	X5	Y5	Z5	X6	Y6	Z6	X7	Y7	Z7	X8	Y8	Z8	X9	Y9	Z9	X10	Y10	Z10	X11	Y11	Z11	X12	Y12	Z12	X13	Y13	Z13	X14	Y14	Z14	X15	Y15	Z15	X16	Y16	Z16	X17	Y17	Z17	X18	Y18	Z18	X19	Y19	Z19	X20	Y20	Z20	X21	Y21	Z21	X22	Y22	Z22	X23	Y23	Z23	X24	Y24	Z24	X25	Y25	Z25	X26	Y26	Z26	X27	Y27	Z27	X28	Y28	Z28	X29	Y29	Z29	X30	Y30	Z30	X31	Y31	Z31	X32	Y32	Z32	X33	Y33	Z33	X34	Y34	Z34	X35	Y35	Z35	X36	Y36	Z36	X37	Y37	Z37	X38	Y38	Z38	X39	Y39	Z39	X40	Y40	Z40	X41	Y41	Z41	X42	Y42	Z42	X43	Y43	Z43	X44	Y44	Z44	X45	Y45	Z45	X46	Y46	Z46	X47	Y47	Z47	X48	Y48	Z48	
1251	6.2550	843.625388	1383.962676	-89.106885	770.153260	1384.563135	-430.670686	786.848225	1481.842404	-247.986544	780.090954	1301.020568	-260.632455	716.423288	1167.019932	73.177593	805.155761	932.115915	-30.659691	605.915773	1138.578016	-559.350248	768.940517	916.533946	-409.148589	196.518113	1314.680214	-174.153335	379.106879	1342.868400	-399.173038	440.634008	1247.359328	-18.243761	403.542184	1255.043023	-376.990638	449.284637	1193.294326	-63.081783	266.064596	1368.437665	-110.650908	244.813202	1380.498469	-204.389314	313.533947	1121.258552	0.791689	305.262448	1222.189316	-420.911803	331.186861	997.006133	-4.252749	363.483383	915.457958	-21.291894	351.023649	830.490134	-39.866616	398.706245	921.023288	-28.942225	361.963650	725.910099	-61.551747	361.745592	707.461374	-186.516066	276.671021	589.449087	-48.949720	252.730067	506.622436	-68.656383	191.204954	445.032079	-72.129824	278.249110	496.420183	-97.239383	117.168697	328.771557	-87.272087	64.958257	359.063335	-138.042564	253.654805	141.646576	-141.331934	183.738569	166.618089	-71.632960	432.154063	1131.633006	-443.156442	512.405577	1101.074308	-443.035763	533.847352	1127.336885	-428.841888	559.932479	1030.116781	-450.639128	665.198894	940.933396	-430.371878	684.432063	924.611164	-296.179105	384.823600	611.933344	-408.720994	322.275117	620.563901	-374.485389	421.759438	436.674868	-433.019837	591.187662	843.319872	-445.776855	556.775011	765.525420	-432.834833	486.687594	711.835121	-428.521125	583.069581	748.127992	-410.767862	498.747607	379.494564	-364.979006	-203.954585	953.987964	-260.947783	1.435234	83.687067	-460.765943	-15.097715	81.817626	-62.476384	
1252	6.2600	844.200492	1381.211860	-92.261125	770.456578	1378.302726	-431.632614	788.200203	1478.418901	-250.706597	778.675787	1297.089214	-261.083435	716.805736	1166.621426	72.352816	804.964269	931.308076	-30.834689	604.052334	1135.275890	-560.282056	768.523878	915.821606	-409.232404	196.321151	1319.460170	-175.014752	378.971362	1344.462500	-400.502121	440.876706	1251.643690	-16.857574	402.066751	1256.739871	-377.216084	448.033605	1196.370867	-62.810207	266.208818	1373.380090	-112.130679	245.152753	1385.137973	-206.004077	312.804673	1125.284619	1.030558	303.711418	1224.934678	-420.722359	333.999705	999.928257	-3.766956	367.874146	918.916450	-20.631188	356.612901	833.736121	-39.773993	402.985121	925.277579	-28.678472	368.414949	728.975586	-59.366754	369.112257	709.576346	-183.731355	280.074892	594.444435	-46.975607	254.175916	512.316794	-66.857096	191.360005	452.012632	-70.366338	279.466200	501.693128	-95.426825	114.797558	337.375498	-85.824018	63.466413	368.981185	-136.545866	245.469675	146.010723	-141.929291	176.500993	172.529717	-72.117528	429.123309	1133.294888	-442.820320	508.878226	1101.601123	-442.602225	530.794124	1127.621828	-428.665571	556.159653	1029.695145	-449.269584	660.931318	939.213678	-428.962029	679.435577	923.970702	-295.492049	386.218832	604.201567	-408.519753	323.026208	610.933229	-374.508091	428.674706	430.343653	-432.920134	587.771944	840.339262	-444.887379	555.043225	761.630208	-432.662378	486.140586	706.480697	-428.305527	581.866404	745.054784	-410.843900	507.606215	376.070270	-364.656092	-203.895755	954.065495	-260.866877	1.440824	83.770966	-460.693241	-15.076465	81.848845	-62.431626	
1253	6.2650	844.661929	1377.992289	-95.207695	770.627281	1371.589930	-432.447620	789.603830	1474.580560	-253.164669	777.036843	1293.156954	-261.325357	716.885877	1165.673341	71.580322	804.638831	930.674495	-31.091312	601.934075	1131.926514	-561.270066	767.952174	915.265771	-409.394967	196.963774	1324.283385	-176.467923	378.956731	1345.922076	-402.332259	439.876679	1256.054406	-16.516289	400.547558	1258.234981	-377.518252	446.596559	1199.495958	-61.846398	266.307243	1378.354250	-113.816452	245.530545	1389.787539	-207.913963	312.253639	1129.056668	1.042696	302.105030	1227.530415	-420.875562	337.341495	1002.717599	-3.305728	373.001975	922.258360	-19.339081	363.762848	837.092430	-37.607068	407.743822	929.639576	-28.498282	376.130535	732.220941	-56.703382	376.761792	712.532188	-182.437992	284.388771	599.646074	-45.035135	256.442622	518.095905	-65.190763	192.319970	459.420407	-68.659720	281.501570	507.018243	-93.826146	113.106333	346.310125	-84.339364	62.381608	379.485009	-134.918089	237.817658	151.019375	-142.082714	169.617881	179.076703	-72.210628	425.683756	1134.766854	-442.651720	504.778191	1101.592420	-442.225765	527.173843	1127.334997	-428.493364	550.388095	1028.564858	-448.414142	655.677178	936.614387	-427.416295	673.876924	921.739246	-294.901197	386.651836	595.671110	-408.425837	322.770659	600.305249	-374.764059	434.971094	423.612597	-433.037052	583.573471	836.302655	-443.986493	552.567025	756.529012	-432.327372	484.682698	700.204644	-428.072812	579.635067	740.605271	-410.860774	515.910524	372.474418	-364.577866	-203.850493	954.099513	-260.771421	1.440080	83.811798	-460.642731	-15.073587	81.844796	-62.412426	
1254	6.2700	844.894159	1374.123178	-97.931375	770.745213	1364.664024	-433.030025	790.738536	1470.551312	-255.544498	775.261112	1289.056824	-261.446121	716.691462	1164.625403	70.825208	804.297186	930.092893	-31.324311	599.374474	1128.343311	-561.979336	767.385504	914.760884	-409.535811	197.039188	1329.151735	-177.534727	378.983381	1347.014589	-404.422909	435.570275	1259.991031	-18.931431	399.046558	1259.553408	-377.842841	445.075125	1202.623508	-60.746299	266.385272	1383.198380	-115.945567	246.071170	1394.287630	-209.920965	311.924078	1132.841141	1.390438	300.451354	1229.908159	-420.513081	341.035574	1005.514751	-2.762106	377.835614	925.629466	-19.458217	371.141931	840.485114	-36.229643	412.888870	934.170087	-28.342736	383.613732	735.456586	-56.662519	384.852559	715.351238	-180.169861	289.352326	605.055065	-43.340421	259.411332	524.227912	-63.644634	193.856315	467.113284	-67.033219	283.935003	512.578325	-92.573551	111.857902	355.612385	-83.039752	61.914731	390.148831	-133.917842	230.617542	156.260308	-141.455998	162.882260	186.101019	-71.999373	421.816565	1135.776054	-442.380473	500.080101	1100.965085	-441.734523	523.110492	1126.423863	-428.306460	544.108378	1026.924421	-447.295730	650.216129	931.618789	-424.897182	667.718376	918.271400	-294.413923	386.189670	586.255408	-408.334212	321.489061	588.772224	-375.275881	440.591702	416.461988	-433.430823	578.532168	831.368656	-443.281648	549.142780	750.833350	-432.476017	482.317261	693.177002	-428.113459	576.641046	735.234476	-411.304404	523.529946	368.770395	-364.530850	-203.834862	954.095065	-260.710355	1.412995	83.818310	-460.645480	-15.077478	81.847312	-62.391731	
1255	6.2750	845.012040	1369.791009	-100.442344	770.937877	1357.543304	-433.415518	792.035120	1466.092024	-257.352325	773.414707	1285.298972	-261.693996	716.199530	1163.310366	70.264100	804.072533	929.593123	-31.396562	596.650748	1124.524004	-562.279280	767.023025	914.273456	-409.521759	196.695054	1334.064387	-178.446082	379.038188	1347.681053	-406.576224	435.237042	1264.664858	-18.010455	397.553460	1260.507683	-378.175562	443.478114	1205.946329	-59.611134	266.460694	1387.978009	-118.285815	246.677729	1398.669327	-212.024688	311.881259	1136.531861	1.646085	298.768203	1232.128833	-419.985177	345.542403	1008.244742	-2.114439	383.955080	929.650948	-18.806480	378.769893	844.005874	-35.180342	418.583209	938.624570	-27.727960	392.410916	738.960718	-54.297061	393.188774	718.709448	-178.166926	294.963385	610.317337	-41.829788	262.966770	530.580207	-62.396463	196.162350	474.867791	-65.563868	287.089200	518.342780	-91.538592	110.906148	365.244557	-81.976767	62.286927	400.699662	-133.353403	223.796713	161.822851	-141.208331	156.723062	193.442503	-71.948417	417.546003	1136.393949	-442.151992	485.944072	1098.759722	-443.948599	518.587651	1124.760500	-428.136561	537.442094	1024.182214	-446.078953	643.108268	926.241759	-424.030480	659.369669	911.726877	-296.780324	384.922902	575.962166	-408.559981	319.198905	576.279551	-375.962531	445.489787	408.692120	-433.816406	572.649644	825.421981	-443.172434	544.949792	744.083486	-432.672177	479.175257	685.323733	-428.313530	572.961948	728.955840	-411.743719	530.369224	365.111446	-364.383991	-203.837531	954.021909	-260.761918	1.382866	83.787152	-460.595847	-15.085535	81.863172	-62.364149	
